<svg height="512pt" viewBox="0 0 512 512" width="512pt" xmlns="http://www.w3.org/2000/svg"><path d="m10.058594 110.644531h491.359375c5.554687 0 10.058593-4.503906 10.058593-10.058593v-90.527344c0-5.554688-4.503906-10.058594-10.058593-10.058594h-491.359375c-5.554688 0-10.058594 4.503906-10.058594 10.058594v90.527344c0 5.554687 4.503906 10.058593 10.058594 10.058593zm10.058594-90.527343h471.242187v70.410156h-471.242187zm0 0"/><path d="m58.40625 24.78125c-16.253906 0-29.476562 13.226562-29.476562 29.480469 0 16.253906 13.222656 29.476562 29.476562 29.476562 16.257812 0 29.480469-13.222656 29.480469-29.476562 0-16.253907-13.222657-29.480469-29.480469-29.480469zm0 38.839844c-5.160156 0-9.359375-4.199219-9.359375-9.359375 0-5.160157 4.199219-9.363281 9.359375-9.363281 5.164062 0 9.363281 4.203124 9.363281 9.363281 0 5.160156-4.199219 9.359375-9.363281 9.359375zm0 0"/><path d="m121.273438 24.78125c-16.253907 0-29.476563 13.226562-29.476563 29.480469 0 16.253906 13.222656 29.476562 29.476563 29.476562 16.253906 0 29.480468-13.222656 29.480468-29.476562 0-16.253907-13.226562-29.480469-29.480468-29.480469zm0 38.839844c-5.160157 0-9.359376-4.199219-9.359376-9.359375 0-5.160157 4.199219-9.363281 9.359376-9.363281 5.164062 0 9.363281 4.203124 9.363281 9.363281 0 5.160156-4.199219 9.359375-9.363281 9.359375zm0 0"/><path d="m184.140625 24.78125c-16.253906 0-29.480469 13.226562-29.480469 29.480469 0 16.253906 13.222656 29.476562 29.480469 29.476562 16.253906 0 29.476563-13.222656 29.476563-29.476562 0-16.253907-13.222657-29.480469-29.476563-29.480469zm0 38.839844c-5.164063 0-9.363281-4.199219-9.363281-9.359375 0-5.160157 4.199218-9.363281 9.363281-9.363281 5.160156 0 9.359375 4.203124 9.359375 9.363281 0 5.160156-4.199219 9.359375-9.359375 9.359375zm0 0"/><path d="m501.941406 131.128906h-221.308594c-5.554687 0-10.058593 4.503906-10.058593 10.058594v106.847656c0 5.554688 4.503906 10.058594 10.058593 10.058594h221.308594c5.554688 0 10.058594-4.503906 10.058594-10.058594v-106.847656c0-5.554688-4.503906-10.058594-10.058594-10.058594zm-10.058594 106.847656h-201.191406v-86.730468h201.191406zm0 0"/><path d="m10.058594 382.203125h227.992187c5.554688 0 10.058594-4.503906 10.058594-10.058594v-230.957031c0-5.554688-4.503906-10.058594-10.058594-10.058594h-227.992187c-5.554688 0-10.058594 4.503906-10.058594 10.058594v230.957031c0 5.554688 4.503906 10.058594 10.058594 10.058594zm13.273437-20.117187 51.175781-58.804688 37.320313 26.71875c2.21875 1.589844 4.992187 2.207031 7.675781 1.714844 2.683594-.492188 5.050782-2.058594 6.5625-4.332032l44.28125-66.738281 57.644532 61.28125v40.15625h-204.660157zm204.660157-210.839844v141.320312l-51.683594-54.945312c-1.578125-1.675782-3.667969-2.746094-5.902344-3.0625-.746094-.109375-1.507812-.132813-2.273438-.066406-3.058593.257812-5.832031 1.902343-7.53125 4.460937l-45.535156 68.625-36.285156-25.980469c-4.214844-3.015625-10.039062-2.335937-13.445312 1.578125l-45.21875 51.960938v-183.890625zm0 0"/><path d="m85.378906 252.496094c24.8125 0 45-20.1875 45-45s-20.1875-45-45-45-45 20.1875-45 45 20.1875 45 45 45zm0-69.882813c13.71875 0 24.882813 11.164063 24.882813 24.882813 0 13.722656-11.164063 24.882812-24.882813 24.882812-13.722656 0-24.882812-11.164062-24.882812-24.882812s11.160156-24.882813 24.882812-24.882813zm0 0"/><path d="m501.941406 279.011719h-221.308594c-5.554687 0-10.058593 4.503906-10.058593 10.058593 0 5.554688 4.503906 10.058594 10.058593 10.058594h221.308594c5.554688 0 10.058594-4.503906 10.058594-10.058594 0-5.554687-4.503906-10.058593-10.058594-10.058593zm0 0"/><path d="m424.765625 330.382812c0-5.554687-4.503906-10.058593-10.058594-10.058593h-134.074219c-5.554687 0-10.058593 4.503906-10.058593 10.058593 0 5.554688 4.503906 10.058594 10.058593 10.058594h134.074219c5.554688 0 10.058594-4.503906 10.058594-10.058594zm0 0"/><path d="m280.632812 361.636719c-5.554687 0-10.058593 4.503906-10.058593 10.058593 0 5.550782 4.503906 10.058594 10.058593 10.058594h83.484376c5.554687 0 10.058593-4.507812 10.058593-10.058594 0-5.554687-4.503906-10.058593-10.058593-10.058593zm0 0"/><path d="m501.941406 401.929688h-491.882812c-5.554688 0-10.058594 4.503906-10.058594 10.058593v89.324219c0 5.554688 4.503906 10.058594 10.058594 10.058594h491.882812c5.554688 0 10.058594-4.503906 10.058594-10.058594v-89.324219c0-5.554687-4.503906-10.058593-10.058594-10.058593zm-10.058594 89.324218h-471.765624v-69.207031h471.765624zm0 0"/><path d="m39.226562 466.710938h46.269532c5.554687 0 10.058594-4.503907 10.058594-10.058594 0-5.554688-4.503907-10.058594-10.058594-10.058594h-46.269532c-5.550781 0-10.058593 4.503906-10.058593 10.058594 0 5.554687 4.507812 10.058594 10.058593 10.058594zm0 0"/><path d="m135.550781 466.710938h46.269531c5.554688 0 10.058594-4.503907 10.058594-10.058594 0-5.554688-4.503906-10.058594-10.058594-10.058594h-46.269531c-5.554687 0-10.058593 4.503906-10.058593 10.058594 0 5.554687 4.503906 10.058594 10.058593 10.058594zm0 0"/><path d="m231.875 466.710938h46.265625c5.554687 0 10.058594-4.503907 10.058594-10.058594 0-5.554688-4.503907-10.058594-10.058594-10.058594h-46.265625c-5.554688 0-10.058594 4.503906-10.058594 10.058594 0 5.554687 4.503906 10.058594 10.058594 10.058594zm0 0"/><path d="m328.195312 466.710938h46.269532c5.554687 0 10.058594-4.503907 10.058594-10.058594 0-5.554688-4.503907-10.058594-10.058594-10.058594h-46.269532c-5.554687 0-10.058593 4.503906-10.058593 10.058594 0 5.554687 4.503906 10.058594 10.058593 10.058594zm0 0"/><path d="m424.519531 466.710938h46.269531c5.550782 0 10.058594-4.503907 10.058594-10.058594 0-5.554688-4.507812-10.058594-10.058594-10.058594h-46.269531c-5.554687 0-10.058593 4.503906-10.058593 10.058594 0 5.554687 4.5 10.058594 10.058593 10.058594zm0 0"/><path d="m460.15625 340.496094c.761719 0 1.535156-.089844 2.3125-.269532l.441406-.105468c5.40625-1.273438 8.761719-6.683594 7.488282-12.09375-1.269532-5.40625-6.683594-8.753906-12.089844-7.488282l-.445313.105469c-5.40625 1.269531-8.757812 6.683594-7.488281 12.089844 1.089844 4.636719 5.21875 7.761719 9.78125 7.761719zm0 0"/><path d="m366.511719 44.417969-.441407.105469c-5.410156 1.269531-8.761718 6.683593-7.492187 12.09375 1.089844 4.632812 5.21875 7.757812 9.785156 7.757812.761719 0 1.535157-.089844 2.308594-.269531l.445313-.105469c5.40625-1.269531 8.757812-6.683594 7.488281-12.09375-1.269531-5.40625-6.683594-8.757812-12.09375-7.488281zm0 0"/><path d="m322.878906 45.261719h-84.828125c-5.554687 0-10.058593 4.503906-10.058593 10.058593 0 5.558594 4.503906 10.058594 10.058593 10.058594h84.828125c5.554688 0 10.058594-4.5 10.058594-10.058594 0-5.554687-4.503906-10.058593-10.058594-10.058593zm0 0"/></svg>